<?xml version="1.0" standalone="no"?>
<!DOCTYPE svg PUBLIC "-//W3C//DTD SVG 20010904//EN"
 "http://www.w3.org/TR/2001/REC-SVG-20010904/DTD/svg10.dtd">
<svg version="1.0" xmlns="http://www.w3.org/2000/svg"
 width="24.000000pt" height="24.000000pt" viewBox="0 0 24.000000 24.000000"
 preserveAspectRatio="xMidYMid meet">

<g transform="translate(0.000000,24.000000) scale(0.100000,-0.100000)"
fill="#000000" stroke="none">
<path d="M74 215 c-21 -21 -24 -31 -19 -58 8 -36 54 -127 65 -127 11 0 57 91
65 127 5 27 2 37 -19 58 -32 32 -60 32 -92 0z m66 -30 c7 -8 10 -22 6 -30 -7
-19 -45 -19 -52 0 -6 15 11 45 26 45 4 0 13 -7 20 -15z"/>
<path d="M23 63 c-25 -10 -14 -41 18 -52 70 -24 189 -6 189 29 0 38 -61 40
-89 2 l-21 -27 -23 28 c-21 25 -45 32 -74 20z"/>
</g>
</svg>
